<svg width="19" height="18" viewBox="0 0 1343 1650" fill="none" xmlns="http://www.w3.org/2000/svg">
<path fill-rule="evenodd" clip-rule="evenodd" d="M1121.97 876.62C1119.9 667.741 1292.29 567.505 1299.99 562.542C1203.1 420.772 1052.14 401.285 998.349 399.094C869.888 386.122 747.726 474.788 682.461 474.788C617.376 474.788 516.799 401.041 410.286 402.992C270.286 405.062 141.214 484.44 69.042 609.861C-76.4087 862.279 31.8385 1236.4 173.606 1441.08C242.859 1541.32 325.446 1653.92 433.907 1649.9C538.319 1645.79 577.832 1582.24 704.133 1582.24C830.403 1582.24 865.867 1649.9 976.4 1647.73C1088.79 1645.66 1159.99 1545.55 1228.78 1444.98C1308.39 1328.66 1341.02 1216.18 1343 1210.4C1340.5 1209.27 1123.85 1126.27 1121.66 876.71L1121.97 876.62H1121.97ZM914.362 263.473C971.895 193.654 1010.77 96.7354 1000.15 0C917.254 3.37971 816.736 55.2637 757.226 124.992C703.801 186.894 657.133 285.548 669.615 380.303C762.187 387.522 856.705 333.261 914.269 263.594L914.362 263.473V263.473Z" fill="white"/>
</svg>
